# xmcd
#
# Track frame offsets:
#	150
#	24245
#	45667
#	65280
#	82708
#	105501
#	128955
#	150928
#	164002
#	183624
#	205459
#
# Disc length: 3027 seconds
# Revision: 0
# Processed by: cddbd v1.5.2PL0 Copyright (c) Steve Scherf et al.
# Submitted via: dBpowerAMP V12.0
#
DISCID=850bd10b
DTITLE=Frank Bang's Secret Stash - Double Dare
DYEAR=2013
DGENRE=Blues
TTITLE0=Double Dare
TTITLE1=Burnin' up in The Wind
TTITLE2=Lose Control
TTITLE3=God Fearin' Man
TTITLE4=Wonder Woman
TTITLE5=This is What It's All About
TTITLE6=All's Well
TTITLE7=My Own Country Way
TTITLE8=18 Wheels of Hell
TTITLE9=All I Need
TTITLE10=Mattie's Girl
EXTD=
EXTT0=
EXTT1=
EXTT2=
EXTT3=
EXTT4=
EXTT5=
EXTT6=
EXTT7=
EXTT8=
EXTT9=
EXTT10=
PLAYORDER=
